<?xml version="1.0" encoding="utf-8"?>
<!-- Generator: Adobe Illustrator 16.0.0, SVG Export Plug-In . SVG Version: 6.00 Build 0)  -->
<!DOCTYPE svg PUBLIC "-//W3C//DTD SVG 1.1//EN" "http://www.w3.org/Graphics/SVG/1.1/DTD/svg11.dtd">
<svg version="1.1" id="Layer_1" xmlns="http://www.w3.org/2000/svg" xmlns:xlink="http://www.w3.org/1999/xlink" x="0px" y="0px"
	 width="31.998px" height="32px" viewBox="0 0 31.998 32" style="enable-background:new 0 0 31.998 32;" xml:space="preserve">
<g>
	<path d="M6.041,11.999c0.535,0,1.043-0.09,1.537-0.222l2.908,2.909l4.242-4.241
		l-2.908-2.91c0.131-0.494,0.22-1,0.22-1.536c0-3.312-2.687-6-6-6C5.926,0,5.826,0.08,5.795,0.194
		c-0.029,0.11,0.027,0.23,0.127,0.285C7.183,1.148,8.041,2.472,8.041,4c0,2.209-1.791,4-4,4C2.512,8,1.19,7.139,0.52,5.881
		C0.466,5.778,0.348,5.725,0.236,5.753C0.122,5.784,0.042,5.883,0.042,6C0.042,9.316,2.73,11.999,6.041,11.999"/>
	<path d="M26.041,19.999c-0.538,0-1.042,0.094-1.538,0.224L21.8,17.516
		l-4.246,4.241l2.707,2.71c-0.129,0.492-0.219,1-0.219,1.531c0,3.312,2.684,6,5.999,6c0.112,0,0.211-0.078,0.246-0.191
		c0.026-0.113-0.031-0.229-0.129-0.289c-1.257-0.672-2.116-1.992-2.116-3.522c0-2.207,1.789-4,3.999-4
		c1.526,0,2.853,0.862,3.521,2.125c0.055,0.103,0.172,0.149,0.285,0.123c0.112-0.029,0.194-0.127,0.194-0.246
		C32.041,22.688,29.354,19.999,26.041,19.999"/>
	<path d="M24.659,11.823c0.445,0.104,0.902,0.176,1.382,0.176
		c0.513,0,1-0.082,1.474-0.204c2.598-0.66,4.526-2.994,4.526-5.795c0-0.116-0.082-0.218-0.199-0.246
		c-0.112-0.028-0.227,0.024-0.288,0.128C30.894,7.139,29.567,8,28.041,8c-0.996,0-1.896-0.376-2.593-0.976l-0.43-0.431
		C24.417,5.891,24.042,4.996,24.042,4c0-1.528,0.855-2.852,2.116-3.521c0.102-0.055,0.155-0.173,0.129-0.284
		C26.256,0.08,26.153,0,26.041,0c-2.983,0-5.44,2.184-5.901,5.034C20.085,5.351,20.042,5.669,20.042,6
		c0,0.592,0.109,1.15,0.27,1.689L7.73,20.271C7.189,20.113,6.63,20,6.041,20c-0.332,0-0.648,0.047-0.966,0.098
		c-2.851,0.467-5.032,2.922-5.032,5.901c0,0.117,0.08,0.219,0.194,0.246c0.109,0.03,0.229-0.022,0.283-0.125
		c0.671-1.263,1.992-2.121,3.521-2.121c1,0,1.902,0.379,2.605,0.985l0.41,0.412C7.662,26.098,8.041,27,8.041,27.998
		c0,1.531-0.859,2.852-2.119,3.523c-0.102,0.055-0.156,0.172-0.127,0.287c0.031,0.11,0.131,0.188,0.246,0.188
		c2.801,0,5.133-1.927,5.795-4.521c0.123-0.477,0.205-0.965,0.205-1.479c0-0.478-0.066-0.935-0.171-1.379L24.659,11.823z"/>
</g>
</svg>
