<?xml version="1.0" encoding="utf-8"?>
<!-- Generator: Adobe Illustrator 16.0.0, SVG Export Plug-In . SVG Version: 6.00 Build 0)  -->
<!DOCTYPE svg PUBLIC "-//W3C//DTD SVG 1.1//EN" "http://www.w3.org/Graphics/SVG/1.1/DTD/svg11.dtd">
<svg version="1.1" id="Layer_1" xmlns="http://www.w3.org/2000/svg" xmlns:xlink="http://www.w3.org/1999/xlink" x="0px" y="0px"
	 width="32px" height="32px" viewBox="-545.5 470.5 32 32" style="enable-background:new -545.5 470.5 32 32;" xml:space="preserve"
	>
<path d="M-541.573,480.741v19.169c0,1.43,1.143,2.59,2.552,2.59h22.968c1.41,0,2.552-1.16,2.552-2.59v-19.169H-541.573z
	 M-534.554,500.58h-5.104v-5.12h5.104V500.58z M-534.554,494.179h-5.104v-5.12h5.104V494.179z M-534.554,487.78h-5.104v-5.119h5.104
	V487.78z M-528.174,500.58h-5.104v-5.12h5.104V500.58z M-528.174,494.179h-5.104v-5.12h5.104V494.179z M-528.174,487.78h-5.104
	v-5.119h5.104V487.78z M-521.794,500.58h-5.104v-5.12h5.104V500.58z M-521.794,494.179h-5.104v-5.12h5.104V494.179z
	 M-521.794,487.78h-5.104v-5.119h5.104V487.78z M-515.414,500.58h-5.104v-5.12h5.104V500.58z M-515.414,494.179h-5.104v-5.12h5.104
	V494.179z M-515.414,487.78h-5.104v-5.119h5.104V487.78z"/>
<path d="M-516.052,474.34h-4.146v-2.88c0-0.53-0.429-0.96-0.957-0.96c-0.529,0-0.957,0.43-0.957,0.96v2.88h-10.847v-2.88
	c0-0.53-0.429-0.96-0.958-0.96c-0.528,0-0.957,0.43-0.957,0.96v2.88h-4.146c-1.409,0-2.552,1.16-2.552,2.59v2.21l0,0v0.32h28.073
	v-0.32l0,0v-2.21C-513.5,475.5-514.643,474.34-516.052,474.34z M-533.917,478.821c-1.056,0-1.914-0.86-1.914-1.92
	c0-0.712,0.386-1.331,0.957-1.662v1.662c0,0.529,0.429,0.96,0.957,0.96c0.528,0,0.958-0.431,0.958-0.96v-1.663
	c0.572,0.332,0.957,0.951,0.957,1.663C-532.002,477.961-532.859,478.821-533.917,478.821z M-521.156,478.821
	c-1.057,0-1.914-0.86-1.914-1.92c0-0.712,0.385-1.331,0.957-1.662v1.662c0,0.529,0.428,0.96,0.957,0.96
	c0.528,0,0.957-0.431,0.957-0.96v-1.663c0.571,0.332,0.957,0.951,0.957,1.663C-519.242,477.961-520.099,478.821-521.156,478.821z"/>
</svg>
