<?xml version="1.0" encoding="utf-8"?>
<!-- Generator: Adobe Illustrator 16.0.0, SVG Export Plug-In . SVG Version: 6.00 Build 0)  -->
<!DOCTYPE svg PUBLIC "-//W3C//DTD SVG 1.1//EN" "http://www.w3.org/Graphics/SVG/1.1/DTD/svg11.dtd">
<svg version="1.1" id="Layer_1" xmlns="http://www.w3.org/2000/svg" xmlns:xlink="http://www.w3.org/1999/xlink" x="0px" y="0px"
	 width="32px" height="32px" viewBox="-581.5 436.5 32 32" enable-background="new -581.5 436.5 32 32" xml:space="preserve">
<g id="Layer_1_1_">
</g>
<g>
	<g>
		<defs>
			<rect id="SVGID_1_" x="-581.5" y="436.5" width="32" height="32"/>
		</defs>
		<clipPath id="SVGID_2_">
			<use xlink:href="#SVGID_1_"  overflow="visible"/>
		</clipPath>
		<path clip-path="url(#SVGID_2_)" fill="#1D1D1B" d="M-558.64,447.503c3.624,0,6.877,1.452,9.098,3.741
			c0.016-0.247,0.042-0.492,0.042-0.741c0-7.731-7.16-14.001-16-14.001c-8.836,0-16,6.27-16,14.001c0,3.664,1.623,6.993,4.258,9.486
			l-4.258,8.513l10.044-5.021c0.776,0.273,1.578,0.499,2.41,0.664c-0.306-0.465-0.57-0.96-0.802-1.467
			c-0.133-0.283-0.246-0.578-0.347-0.873c-0.372-1.045-0.59-2.148-0.59-3.303C-570.784,452.436-565.336,447.503-558.64,447.503"/>
	</g>
	<g>
		<defs>
			<rect id="SVGID_3_" x="-581.5" y="436.5" width="32" height="32"/>
		</defs>
		<clipPath id="SVGID_4_">
			<use xlink:href="#SVGID_3_"  overflow="visible"/>
		</clipPath>
		<path clip-path="url(#SVGID_4_)" fill="#1D1D1B" d="M-552.465,462.109c1.317-1.697,1.919-3.805,1.446-5.898
			c-0.911-4.024-5.379-6.441-9.973-5.396c-4.598,1.039-7.586,5.146-6.673,9.166c0.914,4.025,5.38,6.441,9.974,5.398
			c0.209-0.047,0.398-0.133,0.607-0.197l7.584,3.32L-552.465,462.109z"/>
	</g>
</g>
</svg>
