<?xml version="1.0" encoding="utf-8"?>
<!-- Generator: Adobe Illustrator 16.0.0, SVG Export Plug-In . SVG Version: 6.00 Build 0)  -->
<!DOCTYPE svg PUBLIC "-//W3C//DTD SVG 1.1//EN" "http://www.w3.org/Graphics/SVG/1.1/DTD/svg11.dtd">
<svg version="1.1" id="Layer_1" xmlns="http://www.w3.org/2000/svg" xmlns:xlink="http://www.w3.org/1999/xlink" x="0px" y="0px"
	 width="32px" height="32px" viewBox="-289.5 412.5 32 32" enable-background="new -289.5 412.5 32 32" xml:space="preserve">
<g id="Layer_1_1_">
</g>
<g id="cog">
	<path fill="#010101" d="M-266.143,434.263v-2.919l-3.489-1.453c-0.097-0.273-0.199-0.539-0.325-0.799l1.409-3.506l-2.065-2.064
		l-3.476,1.432c-0.265-0.127-0.536-0.236-0.815-0.335l-1.479-3.468h-2.919l-1.443,3.455c-0.291,0.104-0.571,0.211-0.847,0.344
		l-3.471-1.396l-2.064,2.064l1.415,3.436c-0.137,0.283-0.248,0.572-0.354,0.867l-3.433,1.469v2.919l3.436,1.431
		c0.106,0.297,0.219,0.585,0.356,0.867l-1.389,3.46l2.064,2.063l3.448-1.42c0.277,0.13,0.559,0.237,0.849,0.336l1.477,3.455h2.92
		l1.446-3.473c0.276-0.103,0.55-0.21,0.812-0.336l3.501,1.402l2.064-2.063l-1.438-3.482c0.123-0.262,0.224-0.527,0.32-0.799
		L-266.143,434.263z M-277.843,437.205c-2.417,0-4.38-1.963-4.38-4.379c0-2.417,1.962-4.379,4.38-4.379
		c2.418,0,4.379,1.962,4.379,4.379C-273.464,435.242-275.426,437.205-277.843,437.205z"/>
</g>
<g id="Layer_1_2_">
</g>
<g id="cog_1_">
	<path fill="#010101" d="M-267.258,425.785l1.66,0.512l1.437-1.731c0.173-0.007,0.341-0.018,0.511-0.044l1.748,1.414l1.535-0.814
		l-0.207-2.227c0.119-0.129,0.229-0.264,0.333-0.404l2.231-0.238l0.51-1.657l-1.713-1.423c-0.008-0.184-0.02-0.361-0.046-0.542
		l1.397-1.729l-0.812-1.532l-2.202,0.201c-0.138-0.127-0.282-0.239-0.433-0.352l-0.235-2.208l-1.66-0.51l-1.414,1.703
		c-0.187,0.01-0.371,0.021-0.555,0.051l-1.726-1.394l-1.535,0.812l0.205,2.208c-0.123,0.136-0.232,0.278-0.34,0.425l-2.224,0.236
		l-0.511,1.662l1.724,1.426c0.011,0.178,0.024,0.352,0.049,0.521l-1.409,1.745l0.814,1.534l2.23-0.209
		c0.127,0.113,0.262,0.218,0.399,0.32L-267.258,425.785z M-266.889,418.62c0.422-1.374,1.882-2.147,3.256-1.726
		c1.375,0.422,2.148,1.879,1.726,3.254c-0.422,1.375-1.881,2.148-3.256,1.728C-266.537,421.453-267.311,419.994-266.889,418.62z"/>
</g>
</svg>
