<?xml version="1.0" encoding="utf-8"?>
<!-- Generator: Adobe Illustrator 16.0.0, SVG Export Plug-In . SVG Version: 6.00 Build 0)  -->
<!DOCTYPE svg PUBLIC "-//W3C//DTD SVG 1.1//EN" "http://www.w3.org/Graphics/SVG/1.1/DTD/svg11.dtd">
<svg version="1.1" id="Layer_1" xmlns="http://www.w3.org/2000/svg" xmlns:xlink="http://www.w3.org/1999/xlink" x="0px" y="0px"
	 width="32px" height="32px" viewBox="-339.5 676.5 32 32" style="enable-background:new -339.5 676.5 32 32;" xml:space="preserve"
	>
<path d="M-313.499,693.493c-2.001,0-4.001,2.007-6,2.007c-2,0-2-7.999-6-7.999c-4,0-8,4-10,11.999c0,0,22,0,23.999,0
	C-311.5,699.5-311.5,693.493-313.499,693.493z M-339.5,681.5v22h32v-22H-339.5z M-309.5,701.501h-28v-18.002h28V701.501z
	 M-317.5,688.5c0,1.658,1.343,3.001,3,3.001c1.657,0,3-1.343,3-3.001c0-1.657-1.343-3-3-3C-316.157,685.5-317.5,686.843-317.5,688.5
	z"/>
</svg>
